<svg width="210" height="233" viewBox="0 0 210 233" fill="none" xmlns="http://www.w3.org/2000/svg">
<path fillRule="evenodd" clipRule="evenodd" d="M97.289 116.62L9.52049 64.7594C7.68052 63.6592 6.58033 61.7623 6.58033 59.4481C6.56136 57.1529 7.62361 55.1612 9.50152 54.08L99.8118 1.5175C101.367 0.550094 103.188 0 105.161 0C107.418 0 109.524 0.739782 111.212 1.99172L200.251 54.9336C202.129 56.0337 203.249 57.9686 203.249 60.2828C203.249 62.5969 202.167 64.5887 200.289 65.6889L112.919 116.829H112.9C110.719 118.327 108.082 119.219 105.256 119.219C102.278 119.219 99.5083 118.251 97.289 116.62Z" fill="#FFD700"/>
<path fillRule="evenodd" clipRule="evenodd" d="M202.149 71.3227L143.573 105.732C135.303 110.607 122.802 116.829 115.461 122.235C111.212 125.365 108.462 130.391 108.462 136.063C108.462 166.413 108.576 196.744 108.633 227.094C108.633 229.01 109.562 230.622 111.231 231.514C112.882 232.406 114.873 232.481 116.486 231.324L199.227 172.483C200.916 171.269 201.864 169.638 202.035 167.608L209.983 75.5907C210.153 73.6558 209.053 72.0625 207.384 71.152C205.734 70.2604 203.837 70.3173 202.149 71.3227Z" fill="white"/>
<path fillRule="evenodd" clipRule="evenodd" d="M7.85153 71.3227L66.4271 105.732C74.6975 110.607 87.1979 116.829 94.5388 122.235C98.7878 125.365 101.538 130.391 101.538 136.063C101.538 166.413 101.424 196.744 101.368 227.094C101.368 229.01 100.419 230.622 98.7689 231.514C97.0996 232.406 95.1269 232.481 93.4955 231.324L10.7727 172.483C9.0845 171.269 8.13606 169.638 7.96534 167.608L0.0174242 75.5907C-0.153295 73.6558 0.946894 72.0625 2.59718 71.152C4.24746 70.2604 6.16331 70.3173 7.85153 71.3227Z" fill="white"/>
<path d="M157.174 185.552C152.697 188.663 148.619 190.674 144.939 191.527C141.24 192.4 137.901 192.115 134.98 190.655C132.04 189.194 129.84 186.747 128.36 183.352C126.88 179.937 126.141 175.594 126.141 170.339C126.141 165.066 126.88 159.793 128.436 154.519C129.972 149.284 132.305 144.03 135.435 138.813C138.565 133.578 142.131 128.968 146.134 125.023C150.117 121.096 154.575 117.777 159.412 115.102C162.295 113.49 165.046 112.314 167.682 111.536C170.319 110.777 172.842 110.417 175.232 110.455C179.993 110.531 183.597 112.105 186.101 115.216C181.302 120.717 176.541 126.237 171.798 131.795C170.717 130.163 169.01 129.386 166.715 129.405C164.42 129.405 161.802 130.277 158.862 131.984C153.892 134.906 149.757 139.003 146.57 144.352C143.44 149.606 141.885 155.05 141.809 160.57C141.714 166.242 143.118 169.865 146.039 171.326C148.96 172.786 152.868 171.857 157.705 168.67C160.531 166.811 163.111 164.44 165.444 161.595C167.796 158.711 169.579 155.714 170.85 152.566C175.213 152.49 179.557 152.395 183.882 152.243C180.941 158.806 177.11 165.028 172.386 170.965C170.034 173.924 167.568 176.637 165.046 179.065C162.523 181.493 159.905 183.655 157.174 185.552Z" fill="black"/>
<path d="M62.9368 148.943C62.8419 144.599 62.7471 140.236 62.6522 135.892C62.5574 131.529 62.4626 127.186 62.3677 122.823C65.4027 124.606 68.4567 126.37 71.4917 128.134C74.5457 129.917 77.5807 131.7 80.6346 133.464C80.6346 145.471 80.6346 157.479 80.6346 169.486C80.6346 181.474 80.6346 193.462 80.6346 205.47C77.8273 203.44 75.0388 201.429 72.2694 199.419C69.481 197.408 66.6926 195.397 63.9042 193.387C63.8093 188.872 63.7145 184.357 63.6007 179.843C63.5058 175.328 63.411 170.795 63.3161 166.28C60.1104 164.156 56.9237 162.031 53.7369 159.907C50.5502 157.782 47.3444 155.658 44.1577 153.533C44.3663 157.953 44.575 162.373 44.7837 166.792C44.9923 171.193 45.201 175.613 45.4096 180.014C42.6023 177.984 39.7949 175.973 37.0065 173.944C34.1991 171.933 31.3917 169.903 28.6033 167.893C27.8066 156.644 27.0099 145.377 26.2132 134.128C25.4165 122.88 24.6009 111.612 23.8042 100.345C26.8582 102.128 29.9311 103.911 32.9851 105.694C36.0391 107.477 39.112 109.26 42.166 111.043C42.3557 115.311 42.5643 119.579 42.754 123.828C42.9627 128.077 43.1523 132.345 43.361 136.575C46.6236 138.643 49.8863 140.71 53.1489 142.759C56.4115 144.808 59.6741 146.875 62.9368 148.943Z" fill="black"/>
<path fillRule="evenodd" clipRule="evenodd" d="M98.0289 46.3979C100.609 45.089 101.955 42.4524 103.719 41.6178C106.925 40.1192 107.95 43.5336 109.334 45.1459C109.41 39.057 111.231 41.447 114.076 43.6095C116.296 45.2977 119.331 47.0997 121.057 48.7121C123.333 50.8176 125.154 52.0885 127.374 54.213C141.638 67.0928 147.803 89.1535 128.189 90.7658C129.612 88.85 131.717 87.2566 131.717 84.3734C117.984 95.546 105.578 96.0961 86.7804 88.3189C88.2599 90.3485 89.5309 90.5003 90.2137 91.7712C90.688 92.6437 90.5552 91.6194 90.3465 92.4351C74.887 95.6218 56.6959 80.4658 77.5805 58.0257C81.2415 53.7198 86.5907 48.2758 91.276 45.3167C93.8178 43.6853 96.9287 41.4281 100.514 41.5419C99.9637 43.7612 98.9394 43.9509 98.0289 46.3979ZM99.5653 85.7201H103.473L103.928 82.4575C115.765 82.3816 118.724 80.4089 119.426 73.4284C119.52 71.9678 119.577 71.1901 119.52 70.3934C119.217 65.8788 116.22 64.3803 106.584 63.7164L107.361 57.1342C110.985 57.2101 111.8 57.8171 111.857 59.2018C111.857 59.4105 111.819 59.7709 111.705 61.0607L119.558 61.0228C119.71 59.1639 119.729 58.2723 119.672 57.3808C119.388 53.3405 116.96 51.5764 108.025 51.5195L108.348 48.769L104.915 48.7879L104.554 51.5384C94.292 51.5764 91.4467 53.587 90.3086 59.9985C90.0051 61.516 89.8913 62.4455 89.8533 63.1094C89.7016 67.3773 92.2813 69.0087 102.05 69.6726L100.95 76.691C96.758 76.71 95.6198 76.2737 95.6578 74.6234C95.6578 74.3199 95.7147 73.8836 95.9802 72.4041L87.7478 72.442C87.3115 74.6234 87.1218 75.5908 87.0839 76.71C86.8942 80.9779 89.4929 82.4765 100.059 82.4765L99.5653 85.7201ZM102.923 63.4698C98.8066 63.2042 97.8771 62.9956 97.8961 61.5729C97.8961 61.1746 97.934 60.89 98.0289 60.321C98.4272 58.1016 99.167 57.2101 103.795 57.1342L102.923 63.4698ZM104.782 76.691L105.749 69.9761C110.074 70.2227 111.25 70.4882 111.307 72.0816C111.307 72.3472 111.288 72.7076 111.212 73.3715C110.852 75.6288 110.245 76.6151 104.782 76.691ZM114.19 40.3089C109.865 39.1328 108.86 37.5584 103.037 38.3551C97.4029 39.1139 93.4005 42.5093 94.5766 38.7535C95.5819 35.396 113.564 33.0249 114.19 40.3089ZM113.147 32.6076C113.014 29.307 115.271 27.4481 116.523 24.8114C117.662 22.3265 118.458 18.8932 122.043 22.0799C127.127 26.4238 116.637 31.8488 113.147 32.6076ZM102.581 28.9656C101.88 30.5779 102.543 32.4179 99.755 31.8488C97.2891 31.3556 92.6228 22.4024 96.8149 20.4107C98.1047 19.8037 99.4136 19.614 100.95 18.8173C105.047 16.6928 108.006 12.4438 111.345 12.2351C120.886 11.6661 115.973 21.7574 113.545 26.2341C109.941 32.5507 107.684 38.431 102.581 28.9656ZM95.6388 34.4855C94.6904 38.2223 91.9209 34.4096 92.9073 41.9402C87.9754 44.8804 88.7531 44.0837 84.2575 47.9344C81.564 50.1916 79.0791 52.5058 76.5372 55.4839C71.833 60.8331 66.351 67.605 65.3646 76.2737C63.8851 89.2863 75.7785 97.1583 91.6743 95.2045C98.3513 94.3699 101.709 96.0581 108.424 96.115C116.258 96.1909 117.263 95.3752 123.826 94.0664C129.422 92.9472 132.912 93.4973 137.086 90.8986C143.269 86.991 144.863 78.2275 141.373 69.3122C137.294 58.5189 127.867 50.59 119.445 44.4441C117.984 43.3249 116.239 42.6421 116.068 40.3658C115.727 36.3634 114.854 37.9568 114.361 35.2253C117.567 32.9111 122.1 31.4695 124.452 28.5103C128.948 22.5921 120.09 18.7035 119.407 18.1724C118.857 14.8908 118.913 13.5629 116.713 11.7988C114.873 10.2813 112.236 9.75022 109.657 10.4521C105.408 11.5712 104.042 15.1943 98.7686 16.9394C90.8966 19.4812 95.2594 21.435 91.4088 23.1042C89.8913 23.7681 89.3791 23.5785 88.5634 24.7925C86.5528 27.6947 88.1841 30.2934 89.7585 31.4505C92.7555 33.6129 94.4248 32.7024 95.6388 34.4855Z" fill="black"/>
</svg>
